<svg width="10" height="11" viewBox="0 0 10 11" fill="none" xmlns="http://www.w3.org/2000/svg">
<path d="M5 0.5C2.23853 0.5 0 2.73859 0 5.5C0 8.26141 2.23853 10.5 5 10.5C7.76147 10.5 10 8.26141 10 5.5C10 2.73859 7.76147 0.5 5 0.5ZM5 9.29999C2.90137 9.29999 1.19995 7.59864 1.19995 5.5C1.19995 3.40136 2.90137 1.70001 5 1.70001C7.09863 1.70001 8.80005 3.4013 8.80005 5.5C8.80005 7.5987 7.09863 9.29999 5 9.29999Z" fill="black"/>
<path d="M5 7.5C6.10457 7.5 7 6.60457 7 5.5C7 4.39543 6.10457 3.5 5 3.5C3.89543 3.5 3 4.39543 3 5.5C3 6.60457 3.89543 7.5 5 7.5Z" fill="black"/>
</svg>
